<svg width="18" height="18" viewBox="0 0 18 18" fill="none" xmlns="http://www.w3.org/2000/svg">
<g id="All" clip-path="url(#clip0_1047_2907)">
<path id="Vector" d="M2.45034 17.4994H15.0504C15.2782 17.4981 15.5022 17.44 15.702 17.3303C15.9017 17.2207 16.071 17.0629 16.1944 16.8713C16.3179 16.6798 16.3916 16.4605 16.4089 16.2332C16.4262 16.006 16.3866 15.778 16.2936 15.57L14.1585 10.9409C14.0488 10.7041 13.8738 10.5034 13.6539 10.3627C13.4341 10.222 13.1786 10.147 12.9176 10.1466C13.8869 8.80619 14.4269 7.20328 14.4661 5.54959C14.4661 2.48951 11.9021 0 8.75034 0C5.59859 0 3.03459 2.48951 3.03459 5.5496C3.073 7.20442 3.61538 8.80814 4.58928 10.1466C4.32735 10.1461 4.07075 10.2205 3.84981 10.3612C3.62886 10.5019 3.45282 10.7029 3.34248 10.9404L1.20678 15.5709C1.11396 15.779 1.07448 16.0068 1.0919 16.234C1.10932 16.4611 1.1831 16.6803 1.30655 16.8718C1.43 17.0632 1.59924 17.2209 1.79895 17.3305C1.99866 17.4401 2.22254 17.4981 2.45034 17.4994ZM8.75034 1.08931C11.2989 1.08931 13.3723 3.09014 13.3723 5.5496C13.3723 9.21963 9.80537 12.011 8.75034 12.7562C7.69531 12.011 4.12834 9.21963 4.12834 5.5496C4.12834 3.09014 6.20182 1.08931 8.75034 1.08931ZM2.20093 16.0248L4.33662 11.3947C4.35796 11.3472 4.39259 11.3069 4.43634 11.2788C4.48008 11.2506 4.53106 11.2357 4.58309 11.2359H5.43291C6.31713 12.2499 7.33579 13.1382 8.46062 13.8763C8.54756 13.9305 8.64793 13.9591 8.75034 13.9591C8.85276 13.9591 8.95313 13.9305 9.04007 13.8763C10.1649 13.1382 11.1836 12.2499 12.0678 11.2359H12.9176C12.9697 11.2357 13.0208 11.2507 13.0646 11.279C13.1084 11.3072 13.143 11.3476 13.1643 11.3952L15.2995 16.0238C15.3655 16.2502 15.285 16.3762 15.0504 16.4101H2.45034C2.21622 16.3765 2.1352 16.2501 2.20093 16.0248Z" fill="#F17B4C"/>
<path id="Vector_2" d="M10.3909 8.23822C10.536 8.23821 10.6751 8.18059 10.7776 8.07803C10.8802 7.97548 10.9378 7.83638 10.9378 7.69134V5.78856L11.1712 5.95192C11.2901 6.03253 11.4359 6.06312 11.5772 6.03708C11.7185 6.01104 11.8439 5.93046 11.9262 5.81275C12.0086 5.69504 12.0413 5.54965 12.0173 5.408C11.9934 5.26636 11.9146 5.13983 11.7981 5.05575L9.0638 3.14171C8.97189 3.07744 8.86245 3.04297 8.7503 3.04297C8.63815 3.04297 8.52871 3.07744 8.4368 3.14171L5.70243 5.05577C5.58594 5.13984 5.50721 5.26638 5.48325 5.40802C5.45929 5.54967 5.49202 5.69506 5.57438 5.81277C5.65674 5.93048 5.7821 6.01106 5.92338 6.03709C6.06466 6.06312 6.21052 6.03252 6.32942 5.9519L6.5628 5.78856V7.69134C6.56281 7.83638 6.62043 7.97548 6.72298 8.07803C6.82554 8.18059 6.96464 8.23821 7.10967 8.23822H10.3909ZM8.7503 4.25735L9.84405 5.02296V7.14447H7.65655V5.02296L8.7503 4.25735Z" fill="#F17B4C"/>
<path id="Vector_3" d="M8.75031 8.78522C8.60658 8.7872 8.4694 8.84569 8.36846 8.94804C8.26752 9.05038 8.21093 9.18836 8.21094 9.3321C8.21094 9.47585 8.26754 9.61382 8.36848 9.71616C8.46943 9.8185 8.6066 9.87699 8.75034 9.87897C8.89407 9.87698 9.03125 9.81849 9.13219 9.71614C9.23313 9.6138 9.28972 9.47583 9.28972 9.33208C9.28971 9.18833 9.23312 9.05036 9.13217 8.94802C9.03123 8.84568 8.89405 8.7872 8.75031 8.78522Z" fill="#F17B4C"/>
</g>
<defs>
<clipPath id="clip0_1047_2907">
<rect width="17.5" height="17.5" fill="white"/>
</clipPath>
</defs>
</svg>