<svg width="771" height="178" viewBox="0 0 771 178" fill="none" xmlns="http://www.w3.org/2000/svg">
<g clip-path="url(#clip0_503_3866)">
<path d="M25.11 0.149902L17.93 12.5899L10.75 0.149902H25.11Z" fill="#EA4A3C"/>
<path d="M3.26001 13.2901L10.15 1.36011L17.03 13.2901H3.26001Z" fill="#EB4A48"/>
<path d="M9.32 0.129883L4.66 8.19988L0 0.129883H9.32Z" fill="#EA4A3C"/>
<path d="M40.7701 29.1699L33.1701 42.3299L25.5801 29.1699H40.7701Z" fill="#EB4A48"/>
<path d="M24.5599 29.1799L16.1099 43.8099L7.65991 29.1799H24.5599Z" fill="#EA4A3C"/>
<path d="M9.70996 28.1601L14.93 19.1101L20.16 28.1601H9.70996Z" fill="#DB4238"/>
<path d="M13.03 51.2001L25.06 30.3701L37.08 51.2001H13.03Z" fill="#DB4238"/>
<path d="M36.3101 141.84L49.7601 118.54L63.2101 141.84H36.3101Z" fill="#F07B4D"/>
<path d="M60.0901 131.11L69.0301 115.64L77.9601 131.11H60.0901Z" fill="#EB4A48"/>
<path d="M69.99 112.24L82.95 89.8L95.9 112.24H69.99Z" fill="#DD5B4E"/>
<path d="M80.97 130.8L87.82 118.95L94.66 130.8H80.97Z" fill="#F07B4D"/>
<path d="M32.73 66.0101L45.79 43.3701L58.86 66.0101H32.73Z" fill="#DB4238"/>
<path d="M33.8101 42.7101L40.5301 31.0601L47.2601 42.7101H33.8101Z" fill="#DD5B4E"/>
<path d="M49.54 31.6101L45.54 38.5301L41.54 31.6101H49.54Z" fill="#DD5B4E"/>
<path d="M53.3301 39.9099L49.8301 45.9599L46.3401 39.9099H53.3301Z" fill="#EA4A3C"/>
<path d="M44.74 43.3701L39.24 52.9001L33.73 43.3701H44.74Z" fill="#EA4A3C"/>
<path d="M45.9199 39.15L49.4699 33L53.0199 39.15H45.9199Z" fill="#EA4A3C"/>
<path d="M38.6799 52.6201L31.6799 64.7601L24.6699 52.6201H38.6799Z" fill="#EB4A48"/>
<path d="M96.5801 59.2601L105.51 43.8101L114.42 59.2601H96.5801Z" fill="#EA4A3C"/>
<path d="M102.77 12.7001L110.04 0.110107L117.31 12.7001H102.77Z" fill="#F07B4D"/>
<path d="M86.8401 40.4399L101.15 15.6499L115.47 40.4399H86.8401Z" fill="#EA4A3C"/>
<path d="M62.7001 86.96L55.4001 99.6L48.1101 86.96H62.7001Z" fill="#DD5B4E"/>
<path d="M47.3899 119.45L39.04 133.89L30.7 119.45H47.3899Z" fill="#EB4A48"/>
<path d="M104.7 88.3401L94.3801 106.21L84.0701 88.3401H104.7Z" fill="#F58231"/>
<path d="M55.39 101L48.09 113.64L40.8 101H55.39Z" fill="#F07B4D"/>
<path d="M51.56 143.34L44.27 155.98L36.97 143.34H51.56Z" fill="#EA4A3C"/>
<path d="M66.9899 143.34L59.6899 155.98L52.3999 143.34H66.9899Z" fill="#EB4A48"/>
<path d="M83.1799 139.13L75.7899 151.92L68.4099 139.13H83.1799Z" fill="#F07B4D"/>
<path d="M30.96 117.81L39.93 102.28L48.89 117.81H30.96Z" fill="#EA4A3C"/>
<path d="M42.3301 162.82L52.0501 145.98L61.7701 162.82H42.3301Z" fill="#DD5B4E"/>
<path d="M60.03 158.69L69.11 142.96L78.19 158.69H60.03Z" fill="#EA4A3C"/>
<path d="M76.8501 152.96L83.3601 141.68L89.8701 152.96H76.8501Z" fill="#DB4238"/>
<path d="M45.1201 173.96L50.7701 164.16L56.4301 173.96H45.1201Z" fill="#F07B4D"/>
<path d="M57.3 173.96L62.9501 164.16L68.6101 173.96H57.3Z" fill="#F07B4D"/>
<path d="M69.3601 173.96L77.0301 160.68L84.6901 173.96H69.3601Z" fill="#DB4238"/>
<path d="M68.38 114.21L58.67 131.03L48.96 114.21H68.38Z" fill="#DB4238"/>
<path d="M89.0999 114.06L79.3899 130.88L69.6799 114.06H89.0999Z" fill="#F07B4D"/>
<path d="M70.88 132.32L65.2 142.17L59.51 132.32H70.88Z" fill="#DB4238"/>
<path d="M97.7199 114.13L93.9499 120.67L90.1799 114.13H97.7199Z" fill="#F58231"/>
<path d="M78.8901 132.36L75.2301 138.69L71.5801 132.36H78.8901Z" fill="#EA4A3C"/>
<path d="M87.1201 132.36L83.4701 138.69L79.8101 132.36H87.1201Z" fill="#EB4A48"/>
<path d="M111.05 61.05L101.23 78.0501L91.4199 61.05H111.05Z" fill="#F07B4D"/>
<path d="M105.01 42.02L95.1999 59.03L85.3799 42.02H105.01Z" fill="#F58231"/>
<path d="M123.58 42.02L115.08 56.75L106.57 42.02H123.58Z" fill="#F07B4D"/>
<path d="M74.9199 87.18L89.9199 61.2L104.91 87.18H74.9199Z" fill="#DB4238"/>
<path d="M84.9199 138.22L87.3699 133.98L89.8199 138.22H84.9199Z" fill="#DD5B4E"/>
<path d="M79.8101 159.57L83.0701 153.94L86.3201 159.57H79.8101Z" fill="#DB4238"/>
<path d="M76.8 138.11L79.25 133.87L81.7 138.11H76.8Z" fill="#DB4238"/>
<path d="M69.03 138.11L71.48 133.87L73.92 138.11H69.03Z" fill="#F07B4D"/>
<path d="M94.78 132.36L91.13 138.69L87.47 132.36H94.78Z" fill="#F07B4D"/>
<path d="M91.3801 139.78L87.7201 146.11L84.0701 139.78H91.3801Z" fill="#F58231"/>
<path d="M81.17 153.93L78.98 157.71L76.8 153.93H81.17Z" fill="#DD5B4E"/>
<path d="M88.91 154.08L86.72 157.87L84.53 154.08H88.91Z" fill="#DD5B4E"/>
<path d="M88.4001 160.57L83.3501 169.32L78.3101 160.57H88.4001Z" fill="#EB4A48"/>
<path d="M61.1399 164.6L56.7899 172.14L52.4399 164.6H61.1399Z" fill="#EB4A48"/>
<path d="M48.79 164.33L45.63 169.82L42.46 164.33H48.79Z" fill="#EA4A3C"/>
<path d="M75.95 160.28L69.1201 172.11L62.3 160.28H75.95Z" fill="#DD5B4E"/>
<path d="M16.8899 66.0301L24.0799 53.5801L31.2599 66.0301H16.8899Z" fill="#EA4A3C"/>
<path d="M49.6101 85.87L56.0401 74.72L62.4701 85.87H49.6101Z" fill="#F07B4D"/>
<path d="M64.5 93.26L62.2701 97.12L60.05 93.26H64.5Z" fill="#EA4A3C"/>
<path d="M37.3501 103.94L32.1101 113.02L26.8701 103.94H37.3501Z" fill="#DB4238"/>
<path d="M66.2201 101.04L62.1501 108.09L58.0801 101.04H66.2201Z" fill="#F07B4D"/>
<path d="M26.52 102.69L31.36 94.3101L36.2 102.69H26.52Z" fill="#DD5B4E"/>
<path d="M30.7299 92.6201L27.34 98.5001L23.95 92.6201H30.7299Z" fill="#EA4A3C"/>
<path d="M62.3701 109.42L65.1701 104.57L67.9701 109.42H62.3701Z" fill="#EB4A48"/>
<path d="M56.5701 73.69L58.5601 70.23L60.5601 73.69H56.5701Z" fill="#EA4A3C"/>
<path d="M78.8401 69.5101L81.3801 65.1201L83.9101 69.5101H78.8401Z" fill="#EA4A3C"/>
<path d="M89.3601 22.6L92.4301 17.28L95.5001 22.6H89.3601Z" fill="#EA4A3C"/>
<path d="M112.8 34.4001L116.16 28.5701L119.53 34.4001H112.8Z" fill="#F7BB65"/>
<path d="M135.3 60.85L138.67 55.02L142.04 60.85H135.3Z" fill="#F58231"/>
<path d="M143.89 65.9299L140.52 71.7599L137.16 65.9299H143.89Z" fill="#F4AA3E"/>
<path d="M123.16 20.8499L127.18 13.8799L131.21 20.8499H123.16Z" fill="#F07B4D"/>
<path d="M129.22 21.6899L125.77 27.6799L122.31 21.6899H129.22Z" fill="#F7BB65"/>
<path d="M123 40.2299L130.25 27.6799L137.5 40.2299H123Z" fill="#F07B4D"/>
<path d="M116.35 40.47L119.51 34.99L122.67 40.47H116.35Z" fill="#F4AA3E"/>
<path d="M87.8201 29.5701L89.9601 25.8601L92.1001 29.5701H87.8201Z" fill="#F58231"/>
<path d="M127.03 26.85L130.1 21.53L133.17 26.85H127.03Z" fill="#F7E393"/>
<path d="M92.3 11.81L95.69 5.94995L99.07 11.81H92.3Z" fill="#F07B4D"/>
<path d="M132.1 54.6999L136.31 47.3999L140.53 54.6999H132.1Z" fill="#F4AA3E"/>
<path d="M117.59 12.74L124.21 1.27002L130.84 12.74H117.59Z" fill="#F07B4D"/>
<path d="M108.62 27.4999L116.47 13.9199L124.31 27.4999H108.62Z" fill="#EA4A3C"/>
<path d="M72.8101 96.7301L75.3501 92.3401L77.8801 96.7301H72.8101Z" fill="#F07B4D"/>
<path d="M89.51 121.33L91.43 118.02L93.34 121.33H89.51Z" fill="#EB4A48"/>
<path d="M81.3201 59.46L87.6401 48.5L93.9701 59.46H81.3201Z" fill="#EA4A3C"/>
<path d="M112.56 64.17L124.51 43.47L136.46 64.17H112.56Z" fill="#EA4A3C"/>
<path d="M124.86 87.4901L136.34 67.6001L147.82 87.4901H124.86Z" fill="#F07B4D"/>
<path d="M136.12 65.51L124.17 86.22L112.22 65.51H136.12Z" fill="#F07B4D"/>
<path d="M60.8601 92.5299L62.2201 90.1799L63.5701 92.5299H60.8601Z" fill="#DB4238"/>
<path d="M21.6499 83.9501L23.7399 80.3201L25.8299 83.9501H21.6499Z" fill="#EA4A3C"/>
<path d="M62.72 97.9899L64.07 95.6399L65.43 97.9899H62.72Z" fill="#EB4A48"/>
<path d="M23.6101 91.78L26.9401 86.01L30.2801 91.78H23.6101Z" fill="#F07B4D"/>
<path d="M56.5701 99.9399L59.4701 94.9099L62.3801 99.9399H56.5701Z" fill="#EB4A48"/>
<path d="M60.5699 74.1899L58.6199 77.5499L56.6799 74.1899H60.5699Z" fill="#EB4A48"/>
<path d="M87.6399 61.3501L84.1499 67.3901L80.6599 61.3501H87.6399Z" fill="#F4AA3E"/>
<path d="M123.61 0.25L117.48 10.86L111.36 0.25H123.61Z" fill="#F7BB65"/>
<path d="M100.56 13.1699L96.05 20.9899L91.53 13.1699H100.56Z" fill="#F4AA3E"/>
<path d="M126.24 13.79L121.72 21.61L117.21 13.79H126.24Z" fill="#F4AA3E"/>
<path d="M128.48 28.3999L122.92 38.0299L117.36 28.3999H128.48Z" fill="#F4AA3E"/>
<path d="M137.89 42.25L131.73 52.93L125.56 42.25H137.89Z" fill="#F58231"/>
<path d="M115.11 28.48L112.29 33.36L109.48 28.48H115.11Z" fill="#F1BA48"/>
<path d="M128.96 1.32007L127.03 4.67007L125.1 1.32007H128.96Z" fill="#F58231"/>
<path d="M131.55 14L129.79 17.04L128.04 14H131.55Z" fill="#F1BA48"/>
<path d="M133.41 21.8101L132.19 23.9301L130.98 21.8101H133.41Z" fill="#F7E393"/>
<path d="M131.13 20.2099L132.02 18.6699L132.91 20.2099H131.13Z" fill="#808285"/>
<path d="M132.29 24.78L133.18 23.23L134.07 24.78H132.29Z" fill="#F7E393"/>
<path d="M130.05 18.2001L131.27 16.0901L132.49 18.2001H130.05Z" fill="#F58231"/>
<path d="M127.34 5.67006L128.56 3.56006L129.78 5.67006H127.34Z" fill="#F1BA48"/>
<path d="M134.5 27.77L132.81 30.69L131.13 27.77H134.5Z" fill="#F58231"/>
<path d="M95.0001 23.6101L92.1801 28.4901L89.3701 23.6101H95.0001Z" fill="#F4AA3E"/>
<path d="M91.6801 30.4299L89.6301 33.9799L87.5901 30.4299H91.6801Z" fill="#F58231"/>
<path d="M118.06 35.28L115.82 39.16L113.57 35.28H118.06Z" fill="#F58231"/>
<path d="M108.93 0.25L101.6 12.94L94.27 0.25H108.93Z" fill="#F4AA3E"/>
<path d="M115.51 13.6699L108.54 25.7299L101.58 13.6699H115.51Z" fill="#F58231"/>
<path d="M106.54 78.3999L103.96 82.8599L101.39 78.3999H106.54Z" fill="#F58231"/>
<path d="M100.19 106.71L97.62 111.17L95.04 106.71H100.19Z" fill="#F07B4D"/>
<path d="M81.9099 88.5701L78.4199 94.6201L74.9399 88.5701H81.9099Z" fill="#EB4A48"/>
<path d="M161.76 131.11L152.83 115.64L143.9 131.11H161.76Z" fill="#F4AA3E"/>
<path d="M151.86 112.24L138.91 89.8L125.95 112.24H151.86Z" fill="#F58231"/>
<path d="M140.88 130.8L134.04 118.95L127.19 130.8H140.88Z" fill="#F07B4D"/>
<path d="M117.16 88.3401L127.47 106.21L137.79 88.3401H117.16Z" fill="#F7BB65"/>
<path d="M138.68 139.13L146.06 151.92L153.45 139.13H138.68Z" fill="#F4AA3E"/>
<path d="M161.83 158.69L152.75 142.96L143.66 158.69H161.83Z" fill="#F1BA48"/>
<path d="M145.01 152.96L138.5 141.68L131.99 152.96H145.01Z" fill="#F58231"/>
<path d="M164.56 173.96L158.9 164.16L153.25 173.96H164.56Z" fill="#F4AA3E"/>
<path d="M152.49 173.96L144.83 160.68L137.17 173.96H152.49Z" fill="#F4AA3E"/>
<path d="M132.75 114.06L142.46 130.88L152.17 114.06H132.75Z" fill="#F7BB65"/>
<path d="M150.97 132.32L156.66 142.17L162.34 132.32H150.97Z" fill="#F4AA3E"/>
<path d="M124.14 114.13L127.91 120.67L131.68 114.13H124.14Z" fill="#F4AA3E"/>
<path d="M142.97 132.36L146.62 138.69L150.28 132.36H142.97Z" fill="#F1BA48"/>
<path d="M134.73 132.36L138.39 138.69L142.04 132.36H134.73Z" fill="#F58231"/>
<path d="M136.94 138.22L134.49 133.98L132.04 138.22H136.94Z" fill="#F1BA48"/>
<path d="M142.04 159.57L138.79 153.94L135.53 159.57H142.04Z" fill="#F7BB65"/>
<path d="M145.06 138.11L142.61 133.87L140.16 138.11H145.06Z" fill="#F7E393"/>
<path d="M152.83 138.11L150.38 133.87L147.93 138.11H152.83Z" fill="#F7BB65"/>
<path d="M127.08 132.36L130.73 138.69L134.38 132.36H127.08Z" fill="#F4AA3E"/>
<path d="M130.48 139.78L134.13 146.11L137.79 139.78H130.48Z" fill="#F58231"/>
<path d="M140.68 153.93L142.87 157.71L145.06 153.93H140.68Z" fill="#F7E393"/>
<path d="M132.95 154.08L135.14 157.87L137.32 154.08H132.95Z" fill="#F1BA48"/>
<path d="M133.46 160.57L138.5 169.32L143.55 160.57H133.46Z" fill="#F07B4D"/>
<path d="M145.9 160.28L152.73 172.11L159.56 160.28H145.9Z" fill="#F58231"/>
<path d="M149.05 96.7301L146.51 92.3401L143.98 96.7301H149.05Z" fill="#F1BA48"/>
<path d="M132.34 121.33L130.43 118.02L128.52 121.33H132.34Z" fill="#F1BA48"/>
<path d="M121.66 106.71L124.24 111.17L126.81 106.71H121.66Z" fill="#F4AA3E"/>
<path d="M139.94 88.5701L143.43 94.6201L146.92 88.5701H139.94Z" fill="#F07B4D"/>
<path d="M23.2001 79.04L21.7901 81.5L20.3701 79.04H23.2001Z" fill="#EB4A48"/>
<path d="M26.34 84.6299L23.94 88.7999L21.53 84.6299H26.34Z" fill="#EB4A48"/>
<path d="M41.3701 99.9L47.8001 88.76L54.2301 99.9H41.3701Z" fill="#EB4A48"/>
<path d="M50.0701 113.17L57.0001 101.18L63.9201 113.17H50.0701Z" fill="#DB4238"/>
<path d="M23.7301 52.04L18.5201 61.05L13.3201 52.04H23.7301Z" fill="#DB4238"/>
<path d="M58.3899 67.1299L38.0299 102.39L17.6699 67.1299H58.3899Z" fill="#DB4238"/>
<path d="M44.4001 0L35.0001 16.08L25.6001 0H44.4001Z" fill="#DB4238"/>
<path d="M17.25 16.3L25.64 1.94995L34.02 16.3H17.25Z" fill="#DD5B4E"/>
<path d="M48.7 17.5L42.48 28.28L36.25 17.5H48.7Z" fill="#EB4A48"/>
<path d="M26.3501 17.6101L20.8601 27.1201L15.3701 17.6101H26.3501Z" fill="#EB4A48"/>
<path d="M21.3301 28.3099L27.4701 17.6899L33.6001 28.3099H21.3301Z" fill="#EA4A3C"/>
<path d="M44.0801 26.6L47.3101 21.01L50.5401 26.6H44.0801Z" fill="#DB4238"/>
<path d="M36.1799 28.4L38.6099 24.21L41.0299 28.4H36.1799Z" fill="#EA4A3C"/>
<path d="M11.4199 43.79L13.3099 40.53L15.1999 43.79H11.4199Z" fill="#EB4A48"/>
<path d="M15.8199 44.7L13.6199 48.5099L11.4199 44.7H15.8199Z" fill="#EA4A3C"/>
<path d="M41.8301 30.97L44.1201 26.99L46.4201 30.97H41.8301Z" fill="#EB4A48"/>
<path d="M46.9299 30.97L49.2299 26.99L51.5299 30.97H46.9299Z" fill="#EA4A3C"/>
<path d="M50.3301 46.3599L52.6301 42.3799L54.9301 46.3599H50.3301Z" fill="#EA4A3C"/>
<path d="M48.5499 27.0601L46.7299 30.2201L44.8999 27.0601H48.5499Z" fill="#EB4A48"/>
<path d="M52.3201 52.8001L54.1901 49.5701L56.0501 52.8001H52.3201Z" fill="#DD5B4E"/>
<path d="M54.9701 46.9299L51.7901 52.4399L48.6101 46.9299H54.9701Z" fill="#EA4A3C"/>
<path d="M46.1301 5.40991L44.2501 8.67991L42.3601 5.40991H46.1301Z" fill="#EA4A3C"/>
<path d="M32.76 23.7201L35.73 18.5801L38.69 23.7201H32.76Z" fill="#DB4238"/>
<path d="M37.5999 24.22L35.1399 28.48L32.6799 24.22H37.5999Z" fill="#DB4238"/>
<path d="M35.5499 17.6201L31.8799 23.9901L28.2 17.6201H35.5499Z" fill="#EA4A3C"/>
<path d="M35.97 16.3701L41.76 6.34009L47.55 16.3701H35.97Z" fill="#EA4A3C"/>
<path d="M16.44 14.28L10 25.44L3.55005 14.28H16.44Z" fill="#EA4A3C"/>
<path d="M197.52 0.149902L204.7 12.5899L211.88 0.149902H197.52Z" fill="#F7BB65"/>
<path d="M219.37 13.2901L212.48 1.36011L205.59 13.2901H219.37Z" fill="#F4AA3E"/>
<path d="M213.3 0.129883L217.96 8.19988L222.62 0.129883H213.3Z" fill="#F4AA3E"/>
<path d="M181.86 29.1699L189.45 42.3299L197.05 29.1699H181.86Z" fill="#F1BA48"/>
<path d="M198.07 29.1799L206.52 43.8099L214.96 29.1799H198.07Z" fill="#F7E393"/>
<path d="M212.92 28.1601L207.69 19.1101L202.47 28.1601H212.92Z" fill="#F1BA48"/>
<path d="M209.59 51.2001L197.57 30.3701L185.54 51.2001H209.59Z" fill="#F7BB65"/>
<path d="M186.31 141.84L172.86 118.54L159.41 141.84H186.31Z" fill="#F1BA48"/>
<path d="M189.9 66.0101L176.83 43.3701L163.76 66.0101H189.9Z" fill="#F7BB65"/>
<path d="M188.82 42.7101L182.09 31.0601L175.37 42.7101H188.82Z" fill="#F4AA3E"/>
<path d="M173.09 31.6101L177.08 38.5301L181.08 31.6101H173.09Z" fill="#F58231"/>
<path d="M169.3 39.9099L172.79 45.9599L176.29 39.9099H169.3Z" fill="#F1BA48"/>
<path d="M177.88 43.3701L183.39 52.9001L188.89 43.3701H177.88Z" fill="#F4AA3E"/>
<path d="M176.7 39.15L173.15 33L169.6 39.15H176.7Z" fill="#F7BB65"/>
<path d="M184.64 52.3899L191.64 64.5299L198.65 52.3899H184.64Z" fill="#F1BA48"/>
<path d="M159.93 86.96L167.22 99.6L174.52 86.96H159.93Z" fill="#F7BB65"/>
<path d="M175.24 119.45L183.58 133.89L191.92 119.45H175.24Z" fill="#F4AA3E"/>
<path d="M167.23 101L174.53 113.64L181.83 101H167.23Z" fill="#F4AA3E"/>
<path d="M171.06 143.34L178.36 155.98L185.66 143.34H171.06Z" fill="#F7BB65"/>
<path d="M155.63 143.34L162.93 155.98L170.23 143.34H155.63Z" fill="#F07B4D"/>
<path d="M191.66 117.81L182.7 102.28L173.73 117.81H191.66Z" fill="#F7BB65"/>
<path d="M180.29 162.82L170.57 145.98L160.85 162.82H180.29Z" fill="#F1BA48"/>
<path d="M177.51 173.96L171.85 164.16L166.2 173.96H177.51Z" fill="#F07B4D"/>
<path d="M154.25 114.21L163.96 131.03L173.67 114.21H154.25Z" fill="#F07B4D"/>
<path d="M161.02 164.6L165.37 172.14L169.72 164.6H161.02Z" fill="#F7E393"/>
<path d="M173.83 164.33L177 169.82L180.16 164.33H173.83Z" fill="#F7E393"/>
<path d="M205.5 69.7399L197.97 56.6899L190.43 69.7399H205.5Z" fill="#F7BB65"/>
<path d="M192.74 88.7699L184.74 74.9099L176.74 88.7699H192.74Z" fill="#F4AA3E"/>
<path d="M173.02 85.87L166.58 74.72L160.15 85.87H173.02Z" fill="#F07B4D"/>
<path d="M185.27 103.94L190.51 113.02L195.76 103.94H185.27Z" fill="#F7E393"/>
<path d="M156.41 101.04L160.48 108.09L164.55 101.04H156.41Z" fill="#F1BA48"/>
<path d="M196.1 102.69L191.27 94.3101L186.43 102.69H196.1Z" fill="#F07B4D"/>
<path d="M191.89 92.6201L195.28 98.5001L198.67 92.6201H191.89Z" fill="#F7E393"/>
<path d="M177.74 90.26L184.64 102.21L191.53 90.26H177.74Z" fill="#F4AA3E"/>
<path d="M166.06 73.69L164.06 70.23L162.07 73.69H166.06Z" fill="#F58231"/>
<path d="M200.98 83.9501L198.88 80.3201L196.79 83.9501H200.98Z" fill="#F1BA48"/>
<path d="M199.01 91.78L195.68 86.01L192.35 91.78H199.01Z" fill="#F7BB65"/>
<path d="M166.06 99.9399L163.15 94.9099L160.25 99.9399H166.06Z" fill="#F1BA48"/>
<path d="M162.06 74.1899L164 77.5499L165.94 74.1899H162.06Z" fill="#F1BA48"/>
<path d="M199.42 79.04L200.84 81.5L202.25 79.04H199.42Z" fill="#F7BB65"/>
<path d="M196.28 84.6299L198.69 88.7999L201.09 84.6299H196.28Z" fill="#F7E393"/>
<path d="M181.25 99.9L174.82 88.76L168.39 99.9H181.25Z" fill="#F7E393"/>
<path d="M172.55 113.17L165.63 101.18L158.7 113.17H172.55Z" fill="#F4AA3E"/>
<path d="M199.19 54.3201L204.02 62.6801L208.84 54.3201H199.19Z" fill="#F7E393"/>
<path d="M185.21 71.1699L193.43 85.4199L201.66 71.1699H185.21Z" fill="#F1BA48"/>
<path d="M164.24 68.0601L175.22 87.0801L186.2 68.0601H164.24Z" fill="#F58231"/>
<path d="M178.22 0L187.62 16.08L197.02 0H178.22Z" fill="#F4AA3E"/>
<path d="M205.38 16.3L196.99 1.94995L188.6 16.3H205.38Z" fill="#F1BA48"/>
<path d="M173.92 17.5L180.14 28.28L186.37 17.5H173.92Z" fill="#F7BB65"/>
<path d="M196.27 17.6101L201.76 27.1201L207.25 17.6101H196.27Z" fill="#F4AA3E"/>
<path d="M201.29 28.3099L195.16 17.6899L189.02 28.3099H201.29Z" fill="#F1BA48"/>
<path d="M178.54 26.6L175.31 21.01L172.08 26.6H178.54Z" fill="#F7BB65"/>
<path d="M186.44 28.4L184.02 24.21L181.6 28.4H186.44Z" fill="#F1BA48"/>
<path d="M211.2 43.79L209.31 40.53L207.43 43.79H211.2Z" fill="#F7E393"/>
<path d="M206.81 44.7L209.01 48.5099L211.21 44.7H206.81Z" fill="#F1BA48"/>
<path d="M180.8 30.97L178.5 26.99L176.2 30.97H180.8Z" fill="#F58231"/>
<path d="M175.69 30.97L173.4 26.99L171.1 30.97H175.69Z" fill="#F7E393"/>
<path d="M172.29 46.3599L169.99 42.3799L167.69 46.3599H172.29Z" fill="#F7E393"/>
<path d="M174.07 27.0601L175.9 30.2201L177.73 27.0601H174.07Z" fill="#F7E393"/>
<path d="M170.3 52.8001L168.44 49.5701L166.57 52.8001H170.3Z" fill="#F7E393"/>
<path d="M167.65 46.9299L170.83 52.4399L174.01 46.9299H167.65Z" fill="#F7BB65"/>
<path d="M176.49 5.40991L178.38 8.67991L180.26 5.40991H176.49Z" fill="#F4AA3E"/>
<path d="M189.86 23.7201L186.9 18.5801L183.93 23.7201H189.86Z" fill="#F4AA3E"/>
<path d="M185.02 24.22L187.48 28.48L189.94 24.22H185.02Z" fill="#F1BA48"/>
<path d="M187.07 17.6201L190.75 23.9901L194.43 17.6201H187.07Z" fill="#F7BB65"/>
<path d="M186.65 16.3701L180.86 6.34009L175.07 16.3701H186.65Z" fill="#F1BA48"/>
<path d="M206.18 14.28L212.63 25.44L219.07 14.28H206.18Z" fill="#F4AA3E"/>
<path d="M272.11 60.78C238.74 60.78 214.53 85.93 214.53 119.3C214.53 152.67 236.62 177.82 271.87 177.82C293.26 177.82 309.47 170.3 321.22 155.02L305.24 142.8C297.01 152.91 287.61 159.49 274.69 159.49C255.18 159.49 237.09 146.56 237.09 127.06H326.4V119.54C326.4 90.87 311.36 60.79 272.11 60.79V60.78ZM237.09 110.13C237.09 95.32 250.72 77.7 271.64 77.7C292.56 77.7 303.37 91.57 303.84 110.13H237.1H237.09Z" fill="#DB4238"/>
<path d="M402.78 60.78C369.41 60.78 345.2 85.93 345.2 119.3C345.2 152.67 367.29 177.82 402.54 177.82C423.93 177.82 440.14 170.3 451.89 155.02L435.91 142.8C427.68 152.91 418.28 159.49 405.36 159.49C385.85 159.49 367.76 146.56 367.76 127.06H457.07V119.54C457.07 90.87 442.03 60.79 402.78 60.79V60.78ZM367.76 110.13C367.76 95.32 381.39 77.7 402.31 77.7C423.23 77.7 434.04 91.57 434.51 110.13H367.77H367.76Z" fill="#DB4238"/>
<path d="M511.83 132.46V81.9301H542.15V63.6001H511.83V63.5801H490.68V63.6001H466.24V81.9301H490.68V139.98C490.68 157.84 491.15 177.82 523.82 177.82C528.05 177.82 537.92 176.88 542.86 174.06V154.79C538.63 157.37 532.75 158.08 527.82 158.08C511.84 158.08 511.84 144.92 511.84 132.46H511.83Z" fill="#DB4238"/>
<path d="M660.599 154.79V97.92C660.599 78.65 646.97 60.79 614.07 60.79C598.56 60.79 581.64 66.2 569.89 77.24L582.58 90.4C590.34 84.52 598.09 77.71 614.31 77.71C632.41 77.71 640.87 89.7 640.87 101.21V105.91H625.359C591.519 105.91 564.02 115.78 564.02 144.45C564.02 166.07 581.88 177.82 602.56 177.82C619.48 177.82 632.17 172.41 641.57 158.08H642.039C642.039 163.72 642.27 169.36 642.74 175H661.539C660.839 169.12 660.599 162.54 660.599 154.79ZM640.859 128.47C640.859 143.51 632.63 160.9 609.13 160.9C594.56 160.9 585.159 155.49 585.159 142.8C585.159 124.94 609.6 121.41 629.58 121.41H640.859V128.46V128.47Z" fill="#DB4238"/>
<path d="M737.68 110.37C728.28 108.25 709.24 106.37 709.24 92.98C709.24 84.99 717.94 80.52 727.81 80.52C738.39 80.52 745.67 85.46 750.61 91.57L767.06 79.11C759.07 65.95 743.79 60.78 728.99 60.78C708.07 60.78 686.69 71.83 686.69 95.09C686.69 116.48 702.67 122.35 720.77 126.82C729.94 128.93 747.56 131.28 747.56 143.98C747.56 153.62 735.81 158.08 725 158.08C712.78 158.08 704.79 151.73 697.97 144.92L681.99 158.08C693.04 173.12 706.67 177.82 725 177.82C747.09 177.82 770.12 167.95 770.12 142.8C770.12 121.88 756.02 114.83 737.69 110.37H737.68Z" fill="#DB4238"/>
<path d="M485.95 51.8201L504.42 19.8201L522.89 51.8201H485.95Z" fill="#F07B4D"/>
</g>
<defs>
<clipPath id="clip0_503_3866">
<rect width="770.11" height="177.82" fill="white"/>
</clipPath>
</defs>
</svg>
