                <svg width="14" height="14" viewBox="0 0 14 14" fill="none" xmlns="http://www.w3.org/2000/svg">
<path d="M13.6398 2.1012L11.8988 0.360062C11.6667 0.128067 11.3576 0.000106812 11.0285 0C11.0283 0 11.0282 0 11.028 0C10.6989 0 10.39 0.127747 10.1581 0.359634L1.28097 9.23663C1.20823 9.31108 1.17832 9.41704 1.15675 9.48337L0.0157835 13.4768C-0.0251254 13.6202 0.0148222 13.7744 0.120139 13.8797C0.198218 13.9578 0.303107 14 0.410346 14C0.44805 14 0.485969 13.9949 0.523139 13.9842L4.51437 12.8439C4.52623 12.8405 4.70257 12.7798 4.76335 12.719L13.6404 3.8419C13.8725 3.60991 14.0001 3.3008 14 2.9715C13.9999 2.64241 13.8719 2.3333 13.6398 2.1012ZM1.00796 12.992L1.77422 10.3102L3.68979 12.2258L1.00796 12.992ZM4.47314 11.8484L2.15159 9.52684L9.28704 2.3914L11.6086 4.71295L4.47314 11.8484ZM13.0599 3.2616L12.189 4.13264L9.86735 1.81099L10.7384 0.940048C10.8153 0.863144 10.9182 0.820847 11.028 0.820847H11.0282C11.1382 0.820847 11.2413 0.863358 11.3184 0.940475L13.0595 2.68161C13.2195 2.84161 13.2197 3.10181 13.0599 3.2616Z" fill="white"/>
</svg>